# xmcd
#
# Track frame offsets:
# 150
# 20835
# 40350
# 54648
# 74167
# 90847
# 110207
# 126556
# 148395
# 167191
# 185019
# 199240
# 218003
# 239489
# 256972
# 276268
#
# Disc length: 3889 seconds
#
# Revision: 2
# Processed by: cddbd v1.5.2PL0 Copyright (c) Steve Scherf et al.
# Submitted via: Axialis_AX_CDPlayer 2.6
#
DISCID=0d0f2f10
DTITLE=שלומי שבת - זמן אהבה
DYEAR=1900
DGENRE=
TTITLE0=אל נא תבכי
TTITLE1=את
TTITLE2=את יפה
TTITLE3=בשם האהבה
TTITLE4=אני אוהב אותך
TTITLE5=מן החושך חזרתי
TTITLE6=האם את כאן
TTITLE7=הרי את מקודשת לי
TTITLE8=קחי אותי
TTITLE9=בן
TTITLE10=לו רק יכולתי
TTITLE11=כשאת רוצה
TTITLE12=התאהבתי
TTITLE13=להרוס אהבה
TTITLE14=תנו לגדול בשקט
TTITLE15=בחוף של טראפטוני
EXTD=
EXTT0=
EXTT1=
EXTT2=
EXTT3=
EXTT4=
EXTT5=
EXTT6=
EXTT7=
EXTT8=
EXTT9=
EXTT10=
EXTT11=
EXTT12=
EXTT13=
EXTT14=
EXTT15=
PLAYORDER=
